# xmcd
#
# Track frame offsets:
#	150
#	21899
#	47813
#	70800
#	89861
#	109417
#	127306
#
# Disc length: 1948 seconds
#
# Revision: 1
# Processed by: cddbd v1.5.1PL0 Copyright (c) Steve Scherf et al.
# Submitted via: audiograbber 1.81.03
#
DISCID=6b079a07
DTITLE=Kelly's Heroes - Rockin'Soulin'Funkin'Country
DYEAR=1900
DGENRE=Country
TTITLE0=Old Weakness
TTITLE1=Can't Get Next To You Babe
TTITLE2=Cripple Creek
TTITLE3=Mover
TTITLE4=Come On
TTITLE5=I Hear You Knockin'
TTITLE6=Game People Play
EXTD=
EXTT0=
EXTT1=
EXTT2=
EXTT3=
EXTT4=
EXTT5=
EXTT6=
PLAYORDER=
